<svg xmlns="http://www.w3.org/2000/svg" width="1500" height="1052" viewBox="0 0 1500 1052">
<rect width="100%" height="100%" fill="white"/>
<text x="40" y="50" font-family="Arial, sans-serif" font-size="30" font-weight="700" fill="#0B2545">Critic minus group correlation by case</text>
<text x="40" y="80" font-family="Arial, sans-serif" font-size="18" fill="#333333">Bars show means; whiskers are 95% across-seed intervals for critic minus group correlation.</text>
<line x1="915" y1="94" x2="915" y2="997" stroke="#666666" stroke-width="2"/>
<text x="907" y="1022" font-family="Arial, sans-serif" font-size="15" fill="#555555">0</text>
<text x="40" y="145" font-family="Arial, sans-serif" font-size="15" fill="#111111">horizon_04_baseline</text>
<line x1="1239" y1="138" x2="1254" y2="138" stroke="#333333" stroke-width="2"/>
<line x1="1239" y1="131" x2="1239" y2="145" stroke="#333333" stroke-width="2"/>
<line x1="1254" y1="131" x2="1254" y2="145" stroke="#333333" stroke-width="2"/>
<rect x="915" y="126" width="332" height="24" rx="6" fill="#1F6F4A"/>
<text x="1257" y="145" font-family="Arial, sans-serif" font-size="15" fill="#1F6F4A">+0.482</text>
<text x="40" y="193" font-family="Arial, sans-serif" font-size="15" fill="#111111">horizon_08_baseline</text>
<line x1="1273" y1="186" x2="1294" y2="186" stroke="#333333" stroke-width="2"/>
<line x1="1273" y1="179" x2="1273" y2="193" stroke="#333333" stroke-width="2"/>
<line x1="1294" y1="179" x2="1294" y2="193" stroke="#333333" stroke-width="2"/>
<rect x="915" y="174" width="368" height="24" rx="6" fill="#1F6F4A"/>
<text x="1293" y="193" font-family="Arial, sans-serif" font-size="15" fill="#1F6F4A">+0.535</text>
<text x="40" y="241" font-family="Arial, sans-serif" font-size="15" fill="#111111">horizon_12_baseline</text>
<line x1="1272" y1="234" x2="1288" y2="234" stroke="#333333" stroke-width="2"/>
<line x1="1272" y1="227" x2="1272" y2="241" stroke="#333333" stroke-width="2"/>
<line x1="1288" y1="227" x2="1288" y2="241" stroke="#333333" stroke-width="2"/>
<rect x="915" y="222" width="365" height="24" rx="6" fill="#1F6F4A"/>
<text x="1290" y="241" font-family="Arial, sans-serif" font-size="15" fill="#1F6F4A">+0.531</text>
<text x="40" y="289" font-family="Arial, sans-serif" font-size="15" fill="#111111">horizon_16_long_wait</text>
<line x1="1300" y1="282" x2="1317" y2="282" stroke="#333333" stroke-width="2"/>
<line x1="1300" y1="275" x2="1300" y2="289" stroke="#333333" stroke-width="2"/>
<line x1="1317" y1="275" x2="1317" y2="289" stroke="#333333" stroke-width="2"/>
<rect x="915" y="270" width="393" height="24" rx="6" fill="#1F6F4A"/>
<text x="1318" y="289" font-family="Arial, sans-serif" font-size="15" fill="#1F6F4A">+0.571</text>
<text x="40" y="337" font-family="Arial, sans-serif" font-size="15" fill="#111111">group_size_02_long_wait</text>
<line x1="1380" y1="330" x2="1399" y2="330" stroke="#333333" stroke-width="2"/>
<line x1="1380" y1="323" x2="1380" y2="337" stroke="#333333" stroke-width="2"/>
<line x1="1399" y1="323" x2="1399" y2="337" stroke="#333333" stroke-width="2"/>
<rect x="915" y="318" width="475" height="24" rx="6" fill="#1F6F4A"/>
<text x="1400" y="337" font-family="Arial, sans-serif" font-size="15" fill="#1F6F4A">+0.689</text>
<text x="40" y="385" font-family="Arial, sans-serif" font-size="15" fill="#111111">group_size_04_long_wait</text>
<line x1="1309" y1="378" x2="1331" y2="378" stroke="#333333" stroke-width="2"/>
<line x1="1309" y1="371" x2="1309" y2="385" stroke="#333333" stroke-width="2"/>
<line x1="1331" y1="371" x2="1331" y2="385" stroke="#333333" stroke-width="2"/>
<rect x="915" y="366" width="405" height="24" rx="6" fill="#1F6F4A"/>
<text x="1330" y="385" font-family="Arial, sans-serif" font-size="15" fill="#1F6F4A">+0.588</text>
<text x="40" y="433" font-family="Arial, sans-serif" font-size="15" fill="#111111">group_size_08_long_wait</text>
<line x1="1285" y1="426" x2="1300" y2="426" stroke="#333333" stroke-width="2"/>
<line x1="1285" y1="419" x2="1285" y2="433" stroke="#333333" stroke-width="2"/>
<line x1="1300" y1="419" x2="1300" y2="433" stroke="#333333" stroke-width="2"/>
<rect x="915" y="414" width="378" height="24" rx="6" fill="#1F6F4A"/>
<text x="1303" y="433" font-family="Arial, sans-serif" font-size="15" fill="#1F6F4A">+0.549</text>
<text x="40" y="481" font-family="Arial, sans-serif" font-size="15" fill="#111111">group_size_12_long_wait</text>
<line x1="1277" y1="474" x2="1289" y2="474" stroke="#333333" stroke-width="2"/>
<line x1="1277" y1="467" x2="1277" y2="481" stroke="#333333" stroke-width="2"/>
<line x1="1289" y1="467" x2="1289" y2="481" stroke="#333333" stroke-width="2"/>
<rect x="915" y="462" width="368" height="24" rx="6" fill="#1F6F4A"/>
<text x="1293" y="481" font-family="Arial, sans-serif" font-size="15" fill="#1F6F4A">+0.534</text>
<text x="40" y="529" font-family="Arial, sans-serif" font-size="15" fill="#111111">critic_budget_002_full</text>
<line x1="906" y1="522" x2="944" y2="522" stroke="#333333" stroke-width="2"/>
<line x1="906" y1="515" x2="906" y2="529" stroke="#333333" stroke-width="2"/>
<line x1="944" y1="515" x2="944" y2="529" stroke="#333333" stroke-width="2"/>
<rect x="915" y="510" width="10" height="24" rx="6" fill="#1F6F4A"/>
<text x="935" y="529" font-family="Arial, sans-serif" font-size="15" fill="#1F6F4A">+0.015</text>
<text x="40" y="577" font-family="Arial, sans-serif" font-size="15" fill="#111111">critic_budget_008_full</text>
<line x1="970" y1="570" x2="1007" y2="570" stroke="#333333" stroke-width="2"/>
<line x1="970" y1="563" x2="970" y2="577" stroke="#333333" stroke-width="2"/>
<line x1="1007" y1="563" x2="1007" y2="577" stroke="#333333" stroke-width="2"/>
<rect x="915" y="558" width="73" height="24" rx="6" fill="#1F6F4A"/>
<text x="998" y="577" font-family="Arial, sans-serif" font-size="15" fill="#1F6F4A">+0.107</text>
<text x="40" y="625" font-family="Arial, sans-serif" font-size="15" fill="#111111">critic_budget_032_full</text>
<line x1="1164" y1="618" x2="1193" y2="618" stroke="#333333" stroke-width="2"/>
<line x1="1164" y1="611" x2="1164" y2="625" stroke="#333333" stroke-width="2"/>
<line x1="1193" y1="611" x2="1193" y2="625" stroke="#333333" stroke-width="2"/>
<rect x="915" y="606" width="263" height="24" rx="6" fill="#1F6F4A"/>
<text x="1188" y="625" font-family="Arial, sans-serif" font-size="15" fill="#1F6F4A">+0.383</text>
<text x="40" y="673" font-family="Arial, sans-serif" font-size="15" fill="#111111">critic_budget_128_full</text>
<line x1="1285" y1="666" x2="1308" y2="666" stroke="#333333" stroke-width="2"/>
<line x1="1285" y1="659" x2="1285" y2="673" stroke="#333333" stroke-width="2"/>
<line x1="1308" y1="659" x2="1308" y2="673" stroke="#333333" stroke-width="2"/>
<rect x="915" y="654" width="382" height="24" rx="6" fill="#1F6F4A"/>
<text x="1307" y="673" font-family="Arial, sans-serif" font-size="15" fill="#1F6F4A">+0.554</text>
<text x="40" y="721" font-family="Arial, sans-serif" font-size="15" fill="#111111">observability_full</text>
<line x1="1254" y1="714" x2="1281" y2="714" stroke="#333333" stroke-width="2"/>
<line x1="1254" y1="707" x2="1254" y2="721" stroke="#333333" stroke-width="2"/>
<line x1="1281" y1="707" x2="1281" y2="721" stroke="#333333" stroke-width="2"/>
<rect x="915" y="702" width="353" height="24" rx="6" fill="#1F6F4A"/>
<text x="1278" y="721" font-family="Arial, sans-serif" font-size="15" fill="#1F6F4A">+0.513</text>
<text x="40" y="769" font-family="Arial, sans-serif" font-size="15" fill="#111111">observability_coarse</text>
<line x1="1168" y1="762" x2="1189" y2="762" stroke="#333333" stroke-width="2"/>
<line x1="1168" y1="755" x2="1168" y2="769" stroke="#333333" stroke-width="2"/>
<line x1="1189" y1="755" x2="1189" y2="769" stroke="#333333" stroke-width="2"/>
<rect x="915" y="750" width="263" height="24" rx="6" fill="#1F6F4A"/>
<text x="1188" y="769" font-family="Arial, sans-serif" font-size="15" fill="#1F6F4A">+0.382</text>
<text x="40" y="817" font-family="Arial, sans-serif" font-size="15" fill="#111111">observability_blind</text>
<line x1="992" y1="810" x2="1015" y2="810" stroke="#333333" stroke-width="2"/>
<line x1="992" y1="803" x2="992" y2="817" stroke="#333333" stroke-width="2"/>
<line x1="1015" y1="803" x2="1015" y2="817" stroke="#333333" stroke-width="2"/>
<rect x="915" y="798" width="89" height="24" rx="6" fill="#1F6F4A"/>
<text x="1014" y="817" font-family="Arial, sans-serif" font-size="15" fill="#1F6F4A">+0.129</text>
<text x="40" y="865" font-family="Arial, sans-serif" font-size="15" fill="#111111">blind_undercovered_counterexample</text>
<line x1="866" y1="858" x2="887" y2="858" stroke="#333333" stroke-width="2"/>
<line x1="866" y1="851" x2="866" y2="865" stroke="#333333" stroke-width="2"/>
<line x1="887" y1="851" x2="887" y2="865" stroke="#333333" stroke-width="2"/>
<rect x="878" y="846" width="37" height="24" rx="6" fill="#9B1C1C"/>
<text x="804" y="865" font-family="Arial, sans-serif" font-size="15" fill="#9B1C1C">-0.055</text>
<text x="40" y="913" font-family="Arial, sans-serif" font-size="15" fill="#111111">sparse_hard_group04</text>
<line x1="1293" y1="906" x2="1312" y2="906" stroke="#333333" stroke-width="2"/>
<line x1="1293" y1="899" x2="1293" y2="913" stroke="#333333" stroke-width="2"/>
<line x1="1312" y1="899" x2="1312" y2="913" stroke="#333333" stroke-width="2"/>
<rect x="915" y="894" width="387" height="24" rx="6" fill="#1F6F4A"/>
<text x="1312" y="913" font-family="Arial, sans-serif" font-size="15" fill="#1F6F4A">+0.563</text>
<text x="40" y="961" font-family="Arial, sans-serif" font-size="15" fill="#111111">sparse_hard_group08</text>
<line x1="1323" y1="954" x2="1333" y2="954" stroke="#333333" stroke-width="2"/>
<line x1="1323" y1="947" x2="1323" y2="961" stroke="#333333" stroke-width="2"/>
<line x1="1333" y1="947" x2="1333" y2="961" stroke="#333333" stroke-width="2"/>
<rect x="915" y="942" width="413" height="24" rx="6" fill="#1F6F4A"/>
<text x="1338" y="961" font-family="Arial, sans-serif" font-size="15" fill="#1F6F4A">+0.600</text>
</svg>
