<svg xmlns="http://www.w3.org/2000/svg" width="1100" height="780" viewBox="0 0 1100 780">
<rect width="100%" height="100%" fill="white"/>
<text x="50" y="50" font-family="Arial, sans-serif" font-size="30" font-weight="700" fill="#0B2545">Critic coverage vs estimator advantage</text>
<text x="50" y="80" font-family="Arial, sans-serif" font-size="18" fill="#333333">Color/shape encode critic observability; marker size scales with wait-token fraction.</text>
<rect x="90" y="130" width="920" height="560" fill="white" stroke="#AAB4C0" stroke-width="2"/>
<line x1="90" y1="631" x2="1010" y2="631" stroke="#777777" stroke-width="2"/>
<text x="450" y="742" font-family="Arial, sans-serif" font-size="18" fill="#333333">critic exact-state hit rate</text>
<text x="20" y="410" font-family="Arial, sans-serif" font-size="18" fill="#333333">delta r</text>
<rect x="120" y="150" width="330" height="104" rx="8" fill="#FFFFFF" stroke="#D0D7DE"/>
<circle cx="142" cy="178" r="8" fill="#1F6F4A" stroke="#111111" stroke-width="1.5"/>
<text x="160" y="184" font-family="Arial, sans-serif" font-size="14" fill="#222222">non-blind critic</text>
<rect x="134" y="198" width="16" height="16" fill="#2457A7" stroke="#111111" stroke-width="1.5"/>
<text x="160" y="212" font-family="Arial, sans-serif" font-size="14" fill="#222222">privileged/full-observation row</text>
<polygon points="142,229 134,245 150,245" fill="#9B1C1C" stroke="#111111" stroke-width="1.5"/>
<text x="160" y="244" font-family="Arial, sans-serif" font-size="14" fill="#222222">blind critic</text>
<line x1="90" y1="690" x2="90" y2="698" stroke="#777777"/>
<text x="76" y="720" font-family="Arial, sans-serif" font-size="14" fill="#444444">0.00</text>
<line x1="320" y1="690" x2="320" y2="698" stroke="#777777"/>
<text x="306" y="720" font-family="Arial, sans-serif" font-size="14" fill="#444444">0.25</text>
<line x1="550" y1="690" x2="550" y2="698" stroke="#777777"/>
<text x="536" y="720" font-family="Arial, sans-serif" font-size="14" fill="#444444">0.50</text>
<line x1="780" y1="690" x2="780" y2="698" stroke="#777777"/>
<text x="766" y="720" font-family="Arial, sans-serif" font-size="14" fill="#444444">0.75</text>
<line x1="1010" y1="690" x2="1010" y2="698" stroke="#777777"/>
<text x="996" y="720" font-family="Arial, sans-serif" font-size="14" fill="#444444">1.00</text>
<circle cx="1009" cy="281" r="9" fill="#1F6F4A" stroke="#111111" stroke-width="1.5"/>
<circle cx="1006" cy="242" r="9" fill="#1F6F4A" stroke="#111111" stroke-width="1.5"/>
<circle cx="1004" cy="245" r="10" fill="#1F6F4A" stroke="#111111" stroke-width="1.5"/>
<circle cx="1006" cy="215" r="11" fill="#1F6F4A" stroke="#111111" stroke-width="1.5"/>
<rect x="832" y="168" width="152" height="20" rx="4" fill="white" opacity="0.82"/>
<text x="836" y="183" font-family="Arial, sans-serif" font-size="13" fill="#222222">horizon 16 long wait</text>
<circle cx="1005" cy="130" r="11" fill="#1F6F4A" stroke="#111111" stroke-width="1.5"/>
<rect x="851" y="97" width="173" height="20" rx="4" fill="white" opacity="0.82"/>
<text x="855" y="112" font-family="Arial, sans-serif" font-size="13" fill="#222222">group size 02 long wait</text>
<circle cx="1006" cy="203" r="11" fill="#1F6F4A" stroke="#111111" stroke-width="1.5"/>
<circle cx="1005" cy="232" r="11" fill="#1F6F4A" stroke="#111111" stroke-width="1.5"/>
<circle cx="1006" cy="242" r="11" fill="#1F6F4A" stroke="#111111" stroke-width="1.5"/>
<circle cx="527" cy="620" r="9" fill="#1F6F4A" stroke="#111111" stroke-width="1.5"/>
<rect x="539" y="593" width="166" height="20" rx="4" fill="white" opacity="0.82"/>
<text x="543" y="608" font-family="Arial, sans-serif" font-size="13" fill="#222222">critic budget 002 full</text>
<circle cx="903" cy="553" r="9" fill="#1F6F4A" stroke="#111111" stroke-width="1.5"/>
<circle cx="990" cy="352" r="9" fill="#1F6F4A" stroke="#111111" stroke-width="1.5"/>
<circle cx="1005" cy="228" r="9" fill="#1F6F4A" stroke="#111111" stroke-width="1.5"/>
<rect x="831" y="237" width="166" height="20" rx="4" fill="white" opacity="0.82"/>
<text x="835" y="252" font-family="Arial, sans-serif" font-size="13" fill="#222222">critic budget 128 full</text>
<rect x="993" y="249" width="18" height="18" fill="#2457A7" stroke="#111111" stroke-width="1.5"/>
<polygon points="1009,343 999,353 1009,363 1019,353" fill="#B7791F" stroke="#111111" stroke-width="1.5"/>
<polygon points="1010,527 1000,547 1020,547" fill="#9B1C1C" stroke="#111111" stroke-width="1.5"/>
<rect x="856" y="550" width="145" height="20" rx="4" fill="white" opacity="0.82"/>
<text x="860" y="565" font-family="Arial, sans-serif" font-size="13" fill="#222222">observability blind</text>
<polygon points="727,662 718,680 736,680" fill="#9B1C1C" stroke="#111111" stroke-width="1.5"/>
<rect x="739" y="638" width="240" height="20" rx="4" fill="white" opacity="0.82"/>
<text x="743" y="653" font-family="Arial, sans-serif" font-size="13" fill="#222222">blind undercovered counterexample</text>
<circle cx="1004" cy="221" r="10" fill="#1F6F4A" stroke="#111111" stroke-width="1.5"/>
<circle cx="1007" cy="194" r="10" fill="#1F6F4A" stroke="#111111" stroke-width="1.5"/>
<rect x="833" y="221" width="145" height="20" rx="4" fill="white" opacity="0.82"/>
<text x="837" y="236" font-family="Arial, sans-serif" font-size="13" fill="#222222">sparse hard group08</text>
</svg>
